# xmcd
# Track frame offsets:
# 750
# 21733
# 38222
# 58353
# 75067
# 92993
# 111045
# 131972
# 155788
# 178998
# 198962
# 218613
#
# Disc length: 3153 seconds
# Revision: 0
# Processed by: cddbd v1.4PL0 Copyright (c) Steve Scherf et al.
# Submitted via: VisiTrax 2.9.5.181 - For more info visit www.synapsa.com
#
DISCID=ad0c470c
DTITLE=Jacquel - You Gotta Work It
DYEAR=2003
DGENRE=Blues
TTITLE0=Writing A Check
TTITLE1=Girls Night Out
TTITLE2=Let The Doorknow Hit Ya
TTITLE3=Tryin' To Love Two
TTITLE4=Too Much Lickin'--Radio
TTITLE5=One Big Unhappy Family
TTITLE6=Too Many Cooks
TTITLE7=Chill In The Air
TTITLE8=Too Much Lickin'--Re-Mix
TTITLE9=House For Sale
TTITLE10=Can You Hear Me Now
TTITLE11=Did I Get Dressed For This
EXTD=
EXTT0=
EXTT1=
EXTT2=
EXTT3=
EXTT4=
EXTT5=
EXTT6=
EXTT7=
EXTT8=
EXTT9=
EXTT10=
EXTT11=
PLAYORDER=
